<?xml version="1.0" encoding="UTF-8"?>
<svg width="2258px" height="597px" viewBox="0 0 2258 597" version="1.1" xmlns="http://www.w3.org/2000/svg" xmlns:xlink="http://www.w3.org/1999/xlink">
    <!-- Generator: Sketch 57.1 (83088) - https://sketch.com -->
    <title>Moonlet Logo_Blue_SVG</title>
    <desc>Created with Sketch.</desc>
    <defs>
        <polygon id="path-1" points="0 0.103536093 670.999642 0.103536093 670.999642 340.961733 0 340.961733"></polygon>
    </defs>
    <g id="New-Moonlet-Logo" stroke="none" stroke-width="1" fill="none" fill-rule="evenodd">
        <g id="Moonlet-Logo_Blue_SVG" transform="translate(0.000000, -68.000000)">
            <g id="Group" transform="translate(1129.000000, 356.900000) scale(-1, 1) rotate(-180.000000) translate(-1129.000000, -356.900000) translate(0.000000, 116.900000)" fill="#00DAFF" fill-rule="nonzero">
                <path d="M902.468653,408.8 C870.168653,406.4 843.068653,393.4 820.668653,370 C798.868653,347.1 786.568653,320 782.468653,285.9 C780.768653,271.9 780.468653,198.9 781.968653,184.1 C785.968653,147.2 798.868653,118.8 822.868653,94.8 C843.268653,74.3 863.968653,63.9 893.468653,59.2 C907.168653,57.1 935.368653,57.9 949.168653,60.8 C988.968653,69.4 1021.46865,95 1040.36865,132.5 C1048.06865,147.8 1052.76865,164.8 1054.96865,185.1 C1056.26865,197.7 1056.26865,269.1 1054.96865,281.7 C1050.96865,318.6 1037.96865,346.8 1013.46865,371.5 C996.268653,388.8 974.568653,400.6 950.168653,405.9 C942.768653,407.5 916.868653,410.2 913.468653,409.8 C912.968653,409.7 907.968653,409.3 902.468653,408.8 Z M925.968653,369.9 C959.968653,366.3 985.068653,347.4 999.068653,314.9 C1007.66865,294.8 1009.36865,279.8 1008.66865,225.4 C1008.26865,188.1 1008.06865,183.5 1006.06865,174.5 C1002.36865,157.9 997.868653,146.7 990.068653,134.9 C985.568653,128 975.168653,116.9 969.068653,112.5 C943.968653,94.1 904.468653,91.1 876.868653,105.5 C858.268653,115.3 842.068653,135.9 834.668653,159.5 C828.668653,178.3 828.468653,181.2 828.468653,232.9 C828.468653,268.2 828.768653,282.3 829.768653,287.9 C833.568653,308.8 839.868653,324 850.968653,338.7 C858.868653,349.2 868.168653,356.9 879.468653,362.4 C889.068653,367 894.568653,368.6 905.568653,369.8 C915.368653,371 915.468653,371 925.968653,369.9 Z" id="Shape"></path>
                <path d="M-3.34239303e-11,233.9 L-3.34239303e-11,62.9 L23.5,62.9 L47,62.9 L46.9,132.2 C46.9,182.3 46.2,219.9 44.6,268.4 C43.4,305.3 42.4,335.5 42.5,335.6 C42.5,335.7 67.3,274.4 97.5,199.4 L152.5,62.9 L168.5,62.9 L184.6,62.9 L239.5,199.1 C269.8,274 294.6,334.3 294.8,333.2 C295,332.1 294.2,304.6 293,272.1 C291.5,228.2 291,193.7 291,137.9 L291,62.9 L314.5,62.9 L338,62.9 L338,233.9 L338,404.9 L307.8,404.7 L277.6,404.4 L224,267.9 C194.6,192.8 170.1,130.4 169.5,129.2 C168.7,127.3 159.5,149.9 114.1,265.9 L59.6,404.9 L29.8,404.9 L-3.34239303e-11,404.9 L-3.34239303e-11,233.9 Z" id="Path"></path>
                <path d="M1139,233.9 L1139,62.9 L1162.5,62.9 L1186,62.9 L1186.2,194.5 L1186.5,326.1 L1268.4,194.5 L1350.2,62.9 L1374.1,62.9 L1398,62.9 L1398,233.9 L1398,404.9 L1374.5,404.9 L1351,404.9 L1351,273.4 C1351,201.1 1350.7,141.9 1350.3,141.9 C1349.8,141.9 1312.6,201.1 1267.6,273.4 L1185.7,404.9 L1162.3,404.9 L1139,404.9 L1139,233.9 Z" id="Path"></path>
                <polygon id="Path" points="1481 233.9 1481 62.9 1585 62.9 1689 62.9 1689 81.4 1689 99.9 1608.5 99.9 1528 99.9 1528 252.4 1528 404.9 1504.5 404.9 1481 404.9"></polygon>
                <polygon id="Path" points="1741 233.9 1741 62.9 1854.5 62.9 1968 62.9 1968 81.4 1968 99.9 1878 99.9 1788 99.9 1788 160.4 1788 220.9 1866 220.9 1944 220.9 1944 239.4 1944 257.9 1866 257.9 1788 257.9 1788 312.4 1788 366.9 1876.8 367.1 1965.5 367.4 1965.8 386.2 1966 404.9 1853.5 404.9 1741 404.9"></polygon>
                <polygon id="Path" points="1991.2 386.2 1991.5 367.4 2046.3 367.1 2101 366.9 2101 214.9 2101 62.9 2124.5 62.9 2148 62.9 2148 214.9 2148 366.9 2203 366.9 2258 366.9 2258 385.9 2258 404.9 2124.5 404.9 1991 404.9"></polygon>
            </g>
            <g id="Group-6" transform="translate(559.000000, 365.867225) rotate(-78.000000) translate(-559.000000, -365.867225) translate(223.000000, 190.367225)">
                <g id="Group-3" transform="translate(0.890912, 0.132164)">
                    <mask id="mask-2" fill="white">
                        <use xlink:href="#path-1"></use>
                    </mask>
                    <g id="Clip-2"></g>
                    <path d="M531.497379,212.150509 C582.070133,253.006714 601.534295,280.354901 596.013169,292.55669 C589.716092,306.477745 543.673449,300.524855 477.598874,279.990052 C485.083105,270.004891 491.633097,259.085236 496.990774,247.243132 C536.818926,159.209541 497.761564,55.5476778 409.750451,15.7085756 C321.741059,-24.1305266 218.10941,14.9375739 178.281259,102.971165 C172.921862,114.81499 169.043826,126.942777 166.485423,139.158335 C107.451187,103.057214 72.5918769,72.3892456 78.8906744,58.4699118 C84.4118,46.2664009 113.046295,42.3632049 181.861646,53.8783214 C81.6675821,20.1573241 9.89638974,8.57336811 0.935958975,28.3784736 C-12.7816897,58.6970819 125.888203,151.081325 310.662677,234.72296 C495.438872,318.366316 656.346392,361.594039 670.064041,331.275431 C679.022751,311.470325 622.954679,265.182689 531.497379,212.150509" id="Fill-1" fill="#00DAFF" mask="url(#mask-2)"></path>
                </g>
                <path d="M190.439682,202.355335 C181.466078,197.622118 172.655787,192.900993 164.132583,188.217872 C168.975234,249.953534 206.179589,307.232371 266.29242,334.569292 C326.405251,361.904484 393.784638,352.184115 443.132583,315.095731 C399.223811,299.00452 351.170335,279.318482 301.37371,256.67332 C266.806425,240.955239 233.916964,224.933126 203.281218,209.066484" id="Fill-4" fill="#00DAFF"></path>
            </g>
        </g>
    </g>
</svg>