<?xml version="1.0" standalone="no"?>
<!DOCTYPE svg PUBLIC "-//W3C//DTD SVG 20010904//EN"
 "http://www.w3.org/TR/2001/REC-SVG-20010904/DTD/svg10.dtd">
<svg version="1.0" xmlns="http://www.w3.org/2000/svg"
 width="512.000000pt" height="512.000000pt" viewBox="0 0 512.000000 512.000000"
 preserveAspectRatio="xMidYMid meet">
<metadata>
Created by potrace 1.11, written by Peter Selinger 2001-2013
</metadata>
<g transform="translate(0.000000,512.000000) scale(0.100000,-0.100000)"
fill="#000000" stroke="none">
<path d="M1173 4620 c-18 -10 -43 -36 -57 -57 -13 -21 -234 -415 -490 -876
l-466 -837 0 -1206 c0 -1335 -4 -1248 64 -1297 l31 -22 1190 -3 c840 -2 1198
1 1216 9 15 6 38 23 52 37 13 15 325 571 693 1237 l669 1210 0 865 0 865 -22
31 c-49 69 56 64 -1470 64 -1350 0 -1379 0 -1410 -20z m2046 -1635 c30 -15 41
-33 41 -66 0 -23 -995 -1839 -1018 -1856 -21 -17 -62 -16 -85 1 -16 13 -1005
1804 -1015 1838 -8 31 8 67 36 82 41 23 1998 24 2041 1z"/>
<path d="M4067 1778 c-19 -18 -686 -1188 -762 -1337 -19 -38 -14 -72 15 -101
20 -20 37 -20 794 -20 426 0 782 3 791 6 17 7 45 54 45 77 0 21 -758 1360
-781 1380 -29 24 -73 21 -102 -5z"/>
</g>
</svg>
